<svg xmlns="http://www.w3.org/2000/svg" xmlns:xlink="http://www.w3.org/1999/xlink" width="25px" height="25px" viewBox="0 0 25 25" version="1.1">
<g id="surface1">
<path style=" stroke:none;fill-rule:nonzero;fill:#ffffff;fill-opacity:1;" d="M 12.5 9.375 C 11.636719 9.375 10.9375 8.675781 10.9375 7.8125 C 10.9375 6.949219 11.636719 6.25 12.5 6.25 C 13.363281 6.25 14.0625 6.949219 14.0625 7.8125 C 14.0625 8.675781 13.363281 9.375 12.5 9.375 Z M 12.5 7.8125 Z M 12.5 7.8125 "/>
<path style=" stroke:none;fill-rule:nonzero;fill:#ffffff;fill-opacity:1;" d="M 12.5 22.65625 C 6.890625 22.65625 2.34375 18.109375 2.34375 12.5 C 2.34375 6.890625 6.890625 2.34375 12.5 2.34375 C 18.109375 2.34375 22.65625 6.890625 22.65625 12.5 C 22.65625 18.109375 18.109375 22.65625 12.5 22.65625 Z M 12.5 3.90625 C 7.753906 3.90625 3.90625 7.753906 3.90625 12.5 C 3.90625 17.246094 7.753906 21.09375 12.5 21.09375 C 17.246094 21.09375 21.09375 17.246094 21.09375 12.5 C 21.09375 7.753906 17.246094 3.90625 12.5 3.90625 Z M 12.5 3.90625 "/>
<path style=" stroke:none;fill-rule:nonzero;fill:#ffffff;fill-opacity:1;" d="M 12.5 18.75 C 11.636719 18.75 10.9375 18.050781 10.9375 17.1875 L 10.9375 12.5 C 10.9375 11.636719 11.636719 10.9375 12.5 10.9375 C 13.363281 10.9375 14.0625 11.636719 14.0625 12.5 L 14.0625 17.1875 C 14.0625 18.050781 13.363281 18.75 12.5 18.75 Z M 12.5 12.5 Z M 12.5 12.5 "/>
</g>
</svg>