<?xml version="1.0" encoding="UTF-8"?>
<svg xmlns="http://www.w3.org/2000/svg" xmlns:xlink="http://www.w3.org/1999/xlink" width="24px" height="24px" viewBox="0 0 24 24" version="1.1">
<g id="surface1">
<path style=" stroke:none;fill-rule:nonzero;fill:rgb(100%,100%,100%);fill-opacity:1;" d="M 10.992188 2.671875 C 10.542969 2.714844 10.226562 2.761719 10.03125 2.8125 C 9.941406 2.835938 9.722656 2.886719 9.539062 2.929688 C 9.363281 2.972656 9.175781 3.027344 9.132812 3.050781 C 9.085938 3.074219 9.003906 3.09375 8.957031 3.09375 C 8.90625 3.09375 8.851562 3.113281 8.835938 3.140625 C 8.820312 3.164062 8.773438 3.1875 8.738281 3.1875 C 8.699219 3.1875 8.582031 3.226562 8.472656 3.277344 C 8.363281 3.324219 8.171875 3.414062 8.039062 3.46875 C 7.542969 3.6875 7.472656 3.722656 7.28125 3.851562 C 7.171875 3.921875 7.070312 3.984375 7.050781 3.984375 C 7.03125 3.984375 6.945312 4.035156 6.863281 4.101562 C 6.777344 4.167969 6.699219 4.21875 6.683594 4.21875 C 6.660156 4.21875 6.445312 4.371094 6.050781 4.683594 C 5.699219 4.953125 5.210938 5.414062 4.828125 5.835938 C 4.472656 6.226562 3.703125 7.296875 3.703125 7.402344 C 3.703125 7.429688 3.683594 7.453125 3.664062 7.453125 C 3.648438 7.453125 3.589844 7.554688 3.539062 7.6875 C 3.488281 7.8125 3.429688 7.921875 3.414062 7.921875 C 3.394531 7.921875 3.375 7.945312 3.375 7.972656 C 3.375 7.996094 3.308594 8.160156 3.230469 8.335938 C 3.042969 8.738281 3.035156 8.765625 2.898438 9.210938 C 2.527344 10.402344 2.417969 11.0625 2.417969 12.1875 C 2.417969 13.097656 2.472656 13.566406 2.660156 14.320312 C 2.695312 14.476562 2.742188 14.675781 2.761719 14.765625 C 2.785156 14.855469 2.847656 15.054688 2.902344 15.210938 C 2.953125 15.359375 3 15.523438 3 15.570312 C 3 15.617188 3.023438 15.65625 3.046875 15.65625 C 3.074219 15.65625 3.09375 15.6875 3.09375 15.726562 C 3.09375 15.761719 3.210938 16.035156 3.351562 16.332031 C 3.492188 16.621094 3.609375 16.875 3.609375 16.894531 C 3.609375 16.914062 3.648438 16.96875 3.695312 17.019531 C 3.746094 17.066406 3.8125 17.167969 3.847656 17.242188 C 3.886719 17.308594 3.929688 17.386719 3.953125 17.414062 C 3.972656 17.4375 4.066406 17.578125 4.160156 17.71875 C 4.253906 17.859375 4.351562 18 4.378906 18.027344 C 4.40625 18.054688 4.496094 18.164062 4.570312 18.261719 C 4.796875 18.558594 5.601562 19.363281 5.914062 19.617188 C 6.082031 19.742188 6.238281 19.878906 6.273438 19.90625 C 6.304688 19.941406 6.351562 19.96875 6.371094 19.96875 C 6.390625 19.96875 6.445312 20.007812 6.496094 20.054688 C 6.609375 20.15625 7.066406 20.4375 7.121094 20.4375 C 7.144531 20.4375 7.171875 20.457031 7.179688 20.476562 C 7.199219 20.527344 8.015625 20.953125 8.089844 20.953125 C 8.128906 20.953125 8.15625 20.972656 8.15625 21 C 8.15625 21.023438 8.207031 21.046875 8.269531 21.046875 C 8.332031 21.046875 8.390625 21.058594 8.398438 21.078125 C 8.425781 21.140625 9.335938 21.433594 9.890625 21.566406 C 10.667969 21.75 11.765625 21.824219 12.65625 21.753906 C 13.734375 21.675781 13.921875 21.652344 13.921875 21.605469 C 13.921875 21.582031 13.988281 21.5625 14.070312 21.5625 C 14.152344 21.5625 14.285156 21.542969 14.363281 21.515625 C 14.722656 21.402344 15.550781 21.132812 15.632812 21.097656 C 15.859375 21.007812 16.851562 20.503906 16.867188 20.46875 C 16.875 20.449219 16.902344 20.4375 16.925781 20.4375 C 16.984375 20.4375 17.738281 19.921875 17.757812 19.867188 C 17.765625 19.847656 17.792969 19.828125 17.820312 19.828125 C 17.921875 19.828125 19.21875 18.628906 19.21875 18.542969 C 19.21875 18.523438 19.265625 18.464844 19.328125 18.402344 C 19.382812 18.347656 19.496094 18.21875 19.570312 18.121094 C 19.648438 18.019531 19.738281 17.910156 19.773438 17.878906 C 19.800781 17.84375 19.828125 17.796875 19.828125 17.769531 C 19.828125 17.742188 19.851562 17.71875 19.875 17.71875 C 19.902344 17.71875 19.921875 17.699219 19.921875 17.675781 C 19.921875 17.65625 20.015625 17.492188 20.132812 17.316406 C 20.25 17.136719 20.371094 16.933594 20.40625 16.867188 C 20.433594 16.789062 20.476562 16.734375 20.492188 16.734375 C 20.519531 16.734375 20.53125 16.707031 20.53125 16.667969 C 20.53125 16.632812 20.59375 16.484375 20.664062 16.34375 C 20.738281 16.203125 20.832031 15.988281 20.878906 15.863281 C 20.925781 15.734375 20.988281 15.613281 21.003906 15.585938 C 21.027344 15.5625 21.046875 15.507812 21.046875 15.460938 C 21.046875 15.414062 21.066406 15.335938 21.089844 15.289062 C 21.191406 15.089844 21.394531 14.277344 21.492188 13.6875 C 21.605469 12.988281 21.589844 11.277344 21.464844 10.589844 C 21.367188 10.023438 21.167969 9.265625 21.09375 9.132812 C 21.066406 9.085938 21.046875 9.003906 21.046875 8.957031 C 21.046875 8.90625 21.027344 8.851562 21 8.835938 C 20.976562 8.820312 20.953125 8.773438 20.953125 8.738281 C 20.953125 8.695312 20.859375 8.46875 20.742188 8.230469 C 20.625 7.988281 20.53125 7.765625 20.53125 7.738281 C 20.53125 7.710938 20.511719 7.6875 20.484375 7.6875 C 20.460938 7.6875 20.4375 7.667969 20.4375 7.640625 C 20.4375 7.617188 20.339844 7.433594 20.21875 7.242188 C 20.089844 7.042969 19.96875 6.84375 19.941406 6.792969 C 19.878906 6.683594 19.707031 6.449219 19.542969 6.261719 C 19.476562 6.183594 19.382812 6.066406 19.332031 6 C 19.214844 5.851562 18.394531 5.023438 18.195312 4.859375 C 17.953125 4.652344 17.242188 4.148438 17.0625 4.050781 C 16.972656 4.003906 16.890625 3.945312 16.875 3.929688 C 16.785156 3.816406 15.164062 3.09375 14.992188 3.09375 C 14.945312 3.09375 14.90625 3.074219 14.90625 3.050781 C 14.90625 3.027344 14.835938 3 14.757812 2.984375 C 14.671875 2.976562 14.457031 2.929688 14.273438 2.882812 C 13.308594 2.648438 12.050781 2.570312 10.992188 2.671875 Z M 12.820312 8.773438 C 12.925781 8.796875 13.054688 8.839844 13.117188 8.863281 C 13.171875 8.886719 13.265625 8.925781 13.328125 8.949219 C 13.828125 9.140625 14.429688 9.570312 14.753906 9.976562 C 14.851562 10.097656 14.945312 10.199219 14.96875 10.210938 C 14.988281 10.21875 15 10.246094 15 10.265625 C 15 10.289062 15.0625 10.410156 15.132812 10.53125 C 15.207031 10.652344 15.300781 10.859375 15.347656 10.992188 C 15.394531 11.117188 15.449219 11.261719 15.472656 11.304688 C 15.496094 11.351562 15.515625 11.480469 15.515625 11.589844 C 15.515625 11.703125 15.539062 11.816406 15.566406 11.84375 C 15.644531 11.917969 15.554688 13.097656 15.464844 13.195312 C 15.441406 13.21875 15.421875 13.277344 15.421875 13.335938 C 15.421875 13.449219 15.085938 14.132812 14.929688 14.328125 C 14.648438 14.683594 14.316406 15.011719 14.078125 15.164062 C 13.917969 15.265625 13.78125 15.367188 13.78125 15.382812 C 13.78125 15.40625 13.738281 15.421875 13.6875 15.421875 C 13.636719 15.421875 13.59375 15.441406 13.59375 15.46875 C 13.59375 15.492188 13.554688 15.515625 13.507812 15.515625 C 13.460938 15.515625 13.40625 15.527344 13.386719 15.546875 C 13.335938 15.605469 13.019531 15.707031 12.75 15.753906 C 11.714844 15.945312 10.863281 15.777344 10.007812 15.214844 C 9.710938 15.019531 9.140625 14.457031 9.039062 14.253906 C 9.003906 14.183594 8.96875 14.121094 8.953125 14.109375 C 8.894531 14.046875 8.625 13.476562 8.625 13.410156 C 8.625 13.363281 8.605469 13.3125 8.582031 13.289062 C 8.527344 13.222656 8.4375 12.613281 8.4375 12.285156 C 8.4375 11.9375 8.527344 11.289062 8.582031 11.226562 C 8.605469 11.203125 8.625 11.152344 8.625 11.109375 C 8.628906 11.042969 8.804688 10.671875 8.953125 10.40625 C 9.457031 9.542969 10.5 8.859375 11.527344 8.714844 C 11.839844 8.671875 12.558594 8.703125 12.820312 8.773438 Z M 12.820312 8.773438 "/>
</g>
</svg>
