<svg xmlns="http://www.w3.org/2000/svg" xmlns:xlink="http://www.w3.org/1999/xlink" width="24px" height="24px" viewBox="0 0 24 23" version="1.1">
<g id="surface1">
<path style=" stroke:none;fill-rule:evenodd;fill:#ffffff;fill-opacity:1;" d="M 18.46875 7.867188 C 17.851562 7.867188 17.1875 8.042969 16.695312 8.488281 L 16.695312 7.933594 L 15.445312 7.933594 L 15.445312 8.472656 C 14.984375 8.070312 14.476562 7.867188 13.84375 7.867188 C 13.039062 7.867188 12.488281 8.203125 12.207031 8.492188 C 12.15625 8.546875 12.113281 8.597656 12.074219 8.648438 C 11.671875 8.085938 10.832031 7.875 9.757812 7.875 C 8.949219 7.875 8.351562 8.011719 7.894531 8.40625 C 7.332031 8.074219 6.65625 7.867188 5.714844 7.867188 C 4.40625 7.867188 3.402344 8.402344 3.402344 9.4375 C 3.402344 10.3125 4.164062 10.8125 5.1875 10.886719 L 6.289062 10.964844 C 6.710938 10.996094 7.042969 11.105469 7.042969 11.464844 C 7.042969 11.898438 6.53125 12.121094 5.820312 12.121094 C 4.992188 12.121094 4.40625 11.898438 3.871094 11.464844 L 3.003906 12.171875 C 3.792969 12.785156 4.722656 13.082031 5.722656 13.082031 C 6.574219 13.082031 7.3125 12.886719 7.78125 12.519531 C 8.148438 12.871094 8.75 13.089844 9.539062 13.089844 C 10.378906 13.089844 10.8125 12.929688 11.066406 12.578125 L 11.089844 12.578125 L 11.089844 13.097656 L 12.332031 13.097656 L 12.332031 12.582031 C 12.640625 12.835938 13.144531 13.085938 13.84375 13.085938 C 14.476562 13.085938 15.054688 12.84375 15.441406 12.492188 L 15.441406 13.015625 C 15.441406 13.730469 14.859375 14.121094 14.023438 14.121094 C 13.550781 14.121094 13.121094 13.910156 12.820312 13.660156 L 11.855469 14.292969 C 12.40625 14.800781 13.210938 15.144531 14.003906 15.144531 C 15.421875 15.144531 16.695312 14.441406 16.695312 12.902344 L 16.695312 12.476562 C 17.222656 12.941406 17.953125 13.089844 18.636719 13.089844 C 19.464844 13.089844 20.28125 12.78125 20.890625 12.199219 L 20.054688 11.613281 C 19.6875 11.925781 19.089844 12.132812 18.613281 12.132812 C 17.757812 12.132812 17.167969 11.816406 17.167969 10.988281 L 20.984375 10.988281 C 20.984375 10.988281 21.015625 10.527344 21.011719 10.265625 C 21.007812 8.769531 19.835938 7.867188 18.46875 7.867188 Z M 11.089844 11.289062 C 11.089844 12.082031 10.734375 12.171875 9.695312 12.171875 C 8.851562 12.171875 8.527344 11.871094 8.527344 11.527344 C 8.527344 11.15625 8.867188 10.917969 9.597656 10.917969 L 11.089844 10.917969 Z M 11.089844 10.015625 L 9.367188 10.015625 C 8.703125 10.015625 8.199219 10.1875 7.863281 10.464844 C 7.574219 10.199219 7.128906 10.023438 6.496094 9.992188 L 5.46875 9.929688 C 4.84375 9.890625 4.652344 9.671875 4.652344 9.449219 C 4.652344 9.09375 4.917969 8.835938 5.714844 8.835938 C 6.386719 8.835938 6.882812 9.027344 7.375 9.308594 L 7.902344 8.800781 L 8.421875 9.3125 C 8.75 9.023438 9.167969 8.839844 9.816406 8.839844 C 10.710938 8.839844 11.089844 9.007812 11.089844 9.492188 Z M 15.191406 11.675781 C 15.015625 11.859375 14.6875 12.074219 14.183594 12.074219 C 13.667969 12.074219 13.285156 11.859375 13.109375 11.675781 C 12.886719 11.445312 12.871094 11.3125 12.855469 10.480469 C 12.847656 9.636719 12.886719 9.503906 13.109375 9.273438 C 13.285156 9.089844 13.667969 8.875 14.183594 8.875 C 14.6875 8.875 15.015625 9.089844 15.191406 9.273438 C 15.414062 9.507812 15.445312 9.648438 15.445312 10.480469 C 15.445312 11.300781 15.414062 11.445312 15.191406 11.675781 Z M 17.167969 10.089844 C 17.167969 9.199219 17.84375 8.769531 18.601562 8.769531 C 19.363281 8.769531 20.050781 9.207031 20.050781 10.089844 Z M 17.167969 10.089844 "/>
</g>
</svg>